<svg width="180" height="18" viewBox="0 0 180 18" fill="none" xmlns="http://www.w3.org/2000/svg">
<path d="M0 17.7102V0.30427H6.387C7.24884 0.285525 8.11069 0.341047 8.963 0.470222C9.71239 0.580044 10.4272 0.857898 11.054 1.28298C11.6433 1.71695 12.1104 2.29585 12.41 2.9635C12.7575 3.70632 12.9331 4.51783 12.924 5.3378C12.9603 6.71948 12.469 8.06313 11.55 9.09571C10.6333 10.1207 8.97767 10.6333 6.583 10.6333H2.241V17.7092L0 17.7102ZM2.241 8.57986H6.618C7.71161 8.68497 8.80632 8.39096 9.7 7.7521C10.0121 7.45122 10.2552 7.08629 10.4126 6.68244C10.5701 6.27859 10.6381 5.84543 10.612 5.41278C10.6309 4.74877 10.4433 4.09525 10.075 3.54233C9.74248 3.04106 9.24111 2.6757 8.662 2.51263C7.97353 2.38126 7.27243 2.32794 6.572 2.35367H2.241V8.57986Z" fill="#333333"/>
<path d="M15.8466 17.7102V0.304291H18.0876V7.45221H26.8876V0.304291H29.1286V17.7102H26.8876V9.50561H18.0876V17.7102H15.8466Z" fill="#333333"/>
<path d="M32.6451 9.23258C32.4998 6.76594 33.3106 4.33814 34.9091 2.45356C35.6496 1.649 36.555 1.01367 37.5636 0.59097C38.5721 0.168267 39.6601 -0.0318545 40.7531 0.00427133C42.2422 -0.0158325 43.7068 0.382886 44.9801 1.15494C46.232 1.91876 47.2304 3.03512 47.8501 4.364C48.528 5.82528 48.8658 7.42112 48.8381 9.03164C48.8661 10.6687 48.5099 12.2896 47.7981 13.7643C47.1629 15.0942 46.135 16.1975 44.8531 16.9253C43.6002 17.6364 42.1828 18.0066 40.7421 17.999C39.2339 18.0222 37.7511 17.6102 36.4711 16.8124C35.2257 16.033 34.2343 14.9078 33.6181 13.5743C32.973 12.2181 32.6405 10.7344 32.6451 9.23258ZM34.9551 9.26857C34.8534 11.0687 35.442 12.8398 36.6011 14.2211C37.1303 14.7931 37.7723 15.2491 38.4867 15.5604C39.2011 15.8718 39.9723 16.0316 40.7516 16.0299C41.5309 16.0282 42.3013 15.865 43.0144 15.5506C43.7274 15.2362 44.3674 14.7774 44.8941 14.2031C46.0665 12.7396 46.6493 10.8907 46.5281 9.01965C46.5557 7.74874 46.3172 6.48611 45.8281 5.31273C45.4137 4.31525 44.7094 3.465 43.8065 2.87189C42.9036 2.27877 41.8434 1.97007 40.7631 1.98569C40.0032 1.97596 39.2491 2.1196 38.546 2.40801C37.8429 2.69642 37.2052 3.12368 36.6711 3.66421C35.5271 4.78321 34.9551 6.65134 34.9551 9.26857Z" fill="#333333"/>
<path d="M55.5576 17.7102V2.35369H49.9786V0.304291H63.3996V2.35369H57.7996V17.7102H55.5576Z" fill="#333333"/>
<path d="M64.5862 9.23259C64.4397 6.76649 65.2491 4.33875 66.8462 2.45357C67.5871 1.64848 68.4931 1.01285 69.5024 0.590131C70.5117 0.167411 71.6005 -0.0324285 72.6941 0.00427853C74.1832 -0.0157715 75.6479 0.382943 76.9211 1.15494C78.1731 1.91867 79.1715 3.03506 79.7911 4.36401C80.4691 5.82526 80.8069 7.42112 80.7792 9.03165C80.8072 10.6688 80.451 12.2896 79.7392 13.7643C79.1041 15.0943 78.0762 16.1976 76.7942 16.9254C75.5413 17.6364 74.1238 18.0066 72.6832 17.999C71.1743 18.0226 69.6907 17.6106 68.4102 16.8124C67.1648 16.0329 66.1735 14.9078 65.5572 13.5743C64.9127 12.2179 64.5809 10.7342 64.5862 9.23259ZM66.8962 9.26858C66.7944 11.0687 67.3831 12.8398 68.5422 14.2211C69.0713 14.7932 69.7133 15.2494 70.4277 15.5608C71.1421 15.8722 71.9133 16.0321 72.6926 16.0304C73.472 16.0287 74.2425 15.8655 74.9555 15.551C75.6685 15.2364 76.3085 14.7775 76.8351 14.2031C78.0074 12.7395 78.5902 10.8907 78.4692 9.01965C78.4967 7.74876 78.2582 6.48614 77.7692 5.31273C77.3547 4.31526 76.6505 3.46501 75.7476 2.87189C74.8446 2.27878 73.7845 1.97008 72.7042 1.9857C71.9439 1.9757 71.1894 2.1192 70.486 2.40762C69.7825 2.69604 69.1445 3.12344 68.6102 3.66421C67.4675 4.78322 66.8962 6.65134 66.8962 9.26858Z" fill="#333333"/>
<path d="M92.0334 17.7102V0.304278H98.3854C99.4486 0.262866 100.509 0.442961 101.498 0.833124C102.265 1.17172 102.907 1.74014 103.335 2.45965C103.766 3.14954 103.996 3.94575 103.999 4.75898C104 5.4996 103.796 6.22602 103.41 6.85837C102.982 7.54772 102.364 8.09972 101.631 8.44891C102.571 8.701 103.402 9.25625 103.993 10.0284C104.551 10.7928 104.841 11.7192 104.819 12.6647C104.827 13.4505 104.656 14.2278 104.319 14.938C104.039 15.5683 103.613 16.1235 103.077 16.5585C102.524 16.9671 101.893 17.2598 101.223 17.4193C100.329 17.6302 99.4114 17.728 98.4924 17.7102H92.0334ZM94.2745 7.61315H97.9354C98.6535 7.64344 99.3724 7.57618 100.072 7.41321C100.587 7.27699 101.041 6.9717 101.36 6.54646C101.662 6.0986 101.814 5.56649 101.793 5.0269C101.806 4.49094 101.667 3.96228 101.393 3.50135C101.132 3.06977 100.721 2.74949 100.238 2.60161C99.3951 2.40224 98.5282 2.32048 97.6625 2.35868H94.2784L94.2745 7.61315ZM94.2745 15.6508H98.4905C98.9999 15.6645 99.5096 15.6367 100.014 15.5678C100.472 15.4947 100.912 15.3335 101.308 15.093C101.673 14.8508 101.968 14.5171 102.163 14.1253C102.394 13.6713 102.509 13.1676 102.498 12.6587C102.512 12.0587 102.343 11.4686 102.013 10.9672C101.691 10.4889 101.217 10.1331 100.667 9.95747C99.8617 9.73371 99.0261 9.63559 98.1904 9.66655H94.2745V15.6508Z" fill="#333333"/>
<path d="M107.219 9.23258C107.074 6.76594 107.884 4.33814 109.483 2.45356C110.223 1.649 111.129 1.01367 112.137 0.59097C113.146 0.168267 114.234 -0.0318545 115.327 0.00427133C116.816 -0.0158325 118.281 0.382886 119.554 1.15494C120.806 1.91867 121.804 3.03506 122.424 4.364C123.102 5.82525 123.44 7.42111 123.412 9.03164C123.44 10.6687 123.084 12.2896 122.372 13.7643C121.737 15.0943 120.709 16.1976 119.427 16.9253C118.174 17.6364 116.757 18.0066 115.316 17.999C113.807 18.0226 112.323 17.6105 111.043 16.8124C109.798 16.0328 108.806 14.9077 108.19 13.5743C107.545 12.2179 107.214 10.7342 107.219 9.23258ZM109.529 9.26857C109.427 11.0687 110.016 12.8398 111.175 14.2211C111.704 14.7931 112.346 15.2491 113.061 15.5604C113.775 15.8718 114.546 16.0316 115.325 16.0299C116.105 16.0282 116.875 15.865 117.588 15.5506C118.301 15.2362 118.941 14.7774 119.468 14.2031C120.64 12.7396 121.223 10.8907 121.102 9.01965C121.129 7.74875 120.891 6.48614 120.402 5.31273C119.988 4.31573 119.284 3.46581 118.382 2.87274C117.479 2.27966 116.42 1.97068 115.34 1.98569C114.579 1.97482 113.823 2.11791 113.119 2.40635C112.414 2.6948 111.775 3.12265 111.24 3.66421C110.099 4.78321 109.529 6.65134 109.529 9.26857Z" fill="#333333"/>
<path d="M125.611 9.23259C125.466 6.76596 126.277 4.3382 127.876 2.45356C128.616 1.64887 129.522 1.01347 130.53 0.59076C131.539 0.168053 132.627 -0.0319981 133.72 0.00427295C135.209 -0.0157232 136.674 0.382987 137.948 1.15494C139.199 1.91876 140.198 3.03512 140.818 4.364C141.495 5.82537 141.832 7.4212 141.804 9.03164C141.832 10.6687 141.476 12.2896 140.764 13.7643C140.129 15.0943 139.101 16.1976 137.819 16.9253C136.567 17.6362 135.15 18.0064 133.709 17.999C132.2 18.0227 130.716 17.6107 129.435 16.8124C128.19 16.033 127.199 14.9078 126.583 13.5743C125.938 12.218 125.606 10.7342 125.611 9.23259ZM127.922 9.26858C127.82 11.0687 128.408 12.8398 129.568 14.2211C130.097 14.7932 130.739 15.2494 131.453 15.5608C132.167 15.8722 132.939 16.0321 133.718 16.0304C134.497 16.0287 135.268 15.8655 135.981 15.5509C136.694 15.2364 137.334 14.7775 137.86 14.2031C139.033 12.7395 139.616 10.8907 139.495 9.01965C139.522 7.74875 139.284 6.48611 138.794 5.31273C138.38 4.31526 137.676 3.465 136.773 2.87189C135.87 2.27877 134.81 1.97007 133.73 1.9857C132.969 1.97564 132.215 2.11911 131.511 2.40754C130.808 2.69596 130.17 3.12339 129.636 3.66421C128.494 4.78322 127.922 6.65134 127.922 9.26858Z" fill="#333333"/>
<path d="M144.599 17.7102V0.304291H146.84V8.93578L155.249 0.304291H158.287L151.187 7.35724L158.602 17.7102H155.645L149.616 8.90079L146.844 11.679V17.7102H144.603H144.599Z" fill="#333333"/>
<path d="M179.995 15.6858V17.7392H168.803C168.786 17.2336 168.868 16.7296 169.045 16.2556C169.366 15.4113 169.829 14.6281 170.414 13.9403C171.242 12.9843 172.153 12.1025 173.134 11.3051C174.512 10.2203 175.764 8.9839 176.865 7.61913C177.45 6.88484 177.789 5.98594 177.835 5.04887C177.843 4.6502 177.769 4.25417 177.617 3.88554C177.465 3.51692 177.238 3.18362 176.951 2.9065C176.646 2.61364 176.286 2.38538 175.89 2.23541C175.495 2.08543 175.074 2.01684 174.651 2.03375C174.209 2.01366 173.767 2.08556 173.354 2.24491C172.941 2.40425 172.565 2.64757 172.251 2.95948C171.619 3.65969 171.291 4.58195 171.339 5.52374L169.202 5.2978C169.247 3.88247 169.839 2.53971 170.854 1.55189C171.927 0.651294 173.301 0.190801 174.7 0.263267C175.403 0.225832 176.107 0.329398 176.77 0.567872C177.432 0.806345 178.04 1.17491 178.558 1.65186C179.021 2.09585 179.386 2.63122 179.631 3.22396C179.876 3.81669 179.994 4.45383 179.979 5.09486C179.977 5.80004 179.836 6.49787 179.563 7.14826C179.219 7.92553 178.753 8.643 178.183 9.27364C177.183 10.3632 176.112 11.3864 174.978 12.3368C173.731 13.4131 172.931 14.1432 172.578 14.5271C172.246 14.8815 171.952 15.2695 171.7 15.6848H180L179.995 15.6858Z" fill="#333333"/>
</svg>
